<!DOCTYPE svg PUBLIC "-//W3C//DTD SVG 1.1//EN" "http://www.w3.org/Graphics/SVG/1.1/DTD/svg11.dtd">
<!-- Uploaded to: SVG Repo, www.svgrepo.com, Transformed by: SVG Repo Mixer Tools -->
<svg fill="#ffffff" width="64px" height="64px" viewBox="-500 -500 2000.00 2000.00" xmlns="http://www.w3.org/2000/svg" stroke="#ffffff">
<g id="SVGRepo_bgCarrier" stroke-width="0"/>
<g id="SVGRepo_tracerCarrier" stroke-linecap="round" stroke-linejoin="round"/>
<g id="SVGRepo_iconCarrier">
<path d="M387 749l102-102 101 102 44-45-101-101 101-101-44-45-101 102-102-102-44 45 102 101-102 101zm403-583h-41V83h-84v83H333V83h-83v83h-42q-34 0-58.5 24.5T125 250v582q0 34 24 58.5t59 24.5h582q35 0 59-24.5t24-58.5V250q0-35-24.5-59.5T790 166zm0 666H208V374h582v458z"/>
</g>
</svg>