<!DOCTYPE svg PUBLIC "-//W3C//DTD SVG 1.1//EN" "http://www.w3.org/Graphics/SVG/1.1/DTD/svg11.dtd">
<!-- Uploaded to: SVG Repo, www.svgrepo.com, Transformed by: SVG Repo Mixer Tools -->
<svg width="64px" height="64px" viewBox="-3.84 -3.84 31.68 31.68" fill="none" xmlns="http://www.w3.org/2000/svg">
<g id="SVGRepo_bgCarrier" stroke-width="0" transform="translate(0,0), scale(1)">
<rect x="-3.84" y="-3.84" width="31.68" height="31.68" rx="6.969600000000001" fill="#f80d24" strokewidth="0"/>
</g>
<g id="SVGRepo_tracerCarrier" stroke-linecap="round" stroke-linejoin="round" stroke="#CCCCCC" stroke-width="2.112"> <path d="M10 12V17" stroke="#f5f0f0" stroke-width="2" stroke-linecap="round" stroke-linejoin="round"/> <path d="M14 12V17" stroke="#f5f0f0" stroke-width="2" stroke-linecap="round" stroke-linejoin="round"/> <path d="M4 7H20" stroke="#f5f0f0" stroke-width="2" stroke-linecap="round" stroke-linejoin="round"/> <path d="M6 10V18C6 19.6569 7.34315 21 9 21H15C16.6569 21 18 19.6569 18 18V10" stroke="#f5f0f0" stroke-width="2" stroke-linecap="round" stroke-linejoin="round"/> <path d="M9 5C9 3.89543 9.89543 3 11 3H13C14.1046 3 15 3.89543 15 5V7H9V5Z" stroke="#f5f0f0" stroke-width="2" stroke-linecap="round" stroke-linejoin="round"/> </g>
<g id="SVGRepo_iconCarrier"> <path d="M10 12V17" stroke="#f5f0f0" stroke-width="2" stroke-linecap="round" stroke-linejoin="round"/> <path d="M14 12V17" stroke="#f5f0f0" stroke-width="2" stroke-linecap="round" stroke-linejoin="round"/> <path d="M4 7H20" stroke="#f5f0f0" stroke-width="2" stroke-linecap="round" stroke-linejoin="round"/> <path d="M6 10V18C6 19.6569 7.34315 21 9 21H15C16.6569 21 18 19.6569 18 18V10" stroke="#f5f0f0" stroke-width="2" stroke-linecap="round" stroke-linejoin="round"/> <path d="M9 5C9 3.89543 9.89543 3 11 3H13C14.1046 3 15 3.89543 15 5V7H9V5Z" stroke="#f5f0f0" stroke-width="2" stroke-linecap="round" stroke-linejoin="round"/> </g>
</svg>